<svg width="139" height="50" viewBox="0 0 139 50" fill="none" xmlns="http://www.w3.org/2000/svg">
<g clip-path="url(#clip0_2053_1159)">
<path d="M21.1026 0.092608L6.62682 8.75375C6.62682 8.75375 5.8106 9.56959 6.93124 10.1782L21.7159 19.1436C21.7159 19.1436 22.735 19.858 24.3675 18.9407L38.3358 10.381C38.3358 10.381 39.2535 9.66661 38.3358 9.05803L34.868 7.02064C34.868 7.02064 33.9503 6.30623 32.4194 7.63362L22.3247 13.8516C22.3247 13.8516 21.61 14.6675 20.6923 14.2574L16.8185 11.9157C16.8185 11.9157 16.0023 10.7956 17.2244 10.3854L27.4206 4.57753C27.4206 4.57753 28.4397 3.76169 27.725 3.25454L22.3247 0.092608C22.3247 0.092608 21.8129 -0.11025 21.1026 0.092608Z" fill="#B53131"/>
<path d="M53.3719 26.8963C52.3483 26.8963 51.4262 26.6317 50.6144 26.1025C49.7982 25.5733 49.1585 24.7927 48.6864 23.7652C48.2143 22.7333 47.9805 21.5029 47.9805 20.0741C47.9805 18.6453 48.2187 17.3708 48.6996 16.3433C49.1805 15.3158 49.8247 14.544 50.6409 14.0325C51.4527 13.5165 52.3616 13.2607 53.3631 13.2607C54.0205 13.2607 54.5896 13.3666 55.075 13.5738C55.5603 13.7855 55.9574 14.0501 56.2618 14.3676C56.5662 14.6851 56.8265 15.0512 57.0383 15.4569C57.0604 15.4877 57.078 15.5186 57.0957 15.5539C57.1089 15.5892 57.1265 15.6245 57.1442 15.6553H57.2457V9.01394H60.8547V26.6846H57.2986V24.5722H57.1442C57.131 24.5943 57.1221 24.6163 57.1089 24.6384C57.0957 24.6604 57.0868 24.6869 57.0736 24.7089C56.8486 25.1235 56.5795 25.4895 56.2706 25.807C55.9618 26.1245 55.5603 26.3847 55.075 26.592C54.5896 26.7993 54.0205 26.9007 53.3719 26.9007V26.8963ZM54.5058 24.0166C55.0926 24.0166 55.6 23.8534 56.0235 23.5271C56.4515 23.2007 56.7736 22.7377 56.9942 22.1424C57.2148 21.547 57.3251 20.8547 57.3251 20.0609C57.3251 19.2671 57.2148 18.5659 56.9986 17.9794C56.778 17.3884 56.4559 16.9386 56.0324 16.6255C55.6088 16.3124 55.097 16.1536 54.5058 16.1536C53.9146 16.1536 53.3852 16.3168 52.9616 16.6431C52.5381 16.9695 52.216 17.4237 51.9998 18.0102C51.7836 18.5968 51.6777 19.2803 51.6777 20.0653C51.6777 20.8502 51.788 21.547 52.0042 22.1424C52.2248 22.7377 52.5469 23.2007 52.9704 23.5315C53.394 23.8622 53.9102 24.0254 54.5058 24.0254V24.0166Z" fill="#B53131"/>
<path d="M68.1521 26.8963C67.1285 26.8963 66.2064 26.6317 65.3946 26.1025C64.5784 25.5733 63.9386 24.7927 63.4665 23.7652C62.9945 22.7333 62.7606 21.5029 62.7606 20.0741C62.7606 18.6453 62.9989 17.3708 63.4798 16.3433C63.9607 15.3158 64.6048 14.544 65.4211 14.0325C66.2329 13.5165 67.1417 13.2607 68.1433 13.2607C68.8006 13.2607 69.3698 13.3666 69.8551 13.5738C70.3404 13.7855 70.7375 14.0501 71.0419 14.3676C71.3464 14.6851 71.6067 15.0512 71.8185 15.4569C71.8405 15.4877 71.8582 15.5186 71.8758 15.5539C71.889 15.5892 71.9067 15.6245 71.9243 15.6553H72.0258V9.01394H75.6348V26.6846H72.0788V24.5722H71.9243C71.9111 24.5943 71.9023 24.6163 71.889 24.6384C71.8758 24.6604 71.867 24.6869 71.8537 24.7089C71.6287 25.1235 71.3596 25.4895 71.0508 25.807C70.7419 26.1245 70.3404 26.3847 69.8551 26.592C69.3698 26.7993 68.8006 26.9007 68.1521 26.9007V26.8963ZM69.2816 24.0166C69.8683 24.0166 70.3757 23.8534 70.7993 23.5271C71.2228 23.2007 71.5493 22.7377 71.7699 22.1424C71.9905 21.547 72.1008 20.8547 72.1008 20.0609C72.1008 19.2671 71.9905 18.5659 71.7743 17.9794C71.5537 17.3884 71.2317 16.9386 70.8081 16.6255C70.3846 16.3124 69.8728 16.1536 69.2816 16.1536C68.6903 16.1536 68.1609 16.3168 67.7374 16.6431C67.3094 16.9695 66.9917 17.4237 66.7755 18.0102C66.5594 18.5968 66.4535 19.2803 66.4535 20.0653C66.4535 20.8502 66.5638 21.547 66.78 22.1424C67.0006 22.7377 67.3226 23.2007 67.7462 23.5315C68.1697 23.8622 68.6815 24.0254 69.2816 24.0254V24.0166Z" fill="#B53131"/>
<path d="M84.0088 26.9404C82.6897 26.9404 81.5381 26.6537 80.5543 26.0848C79.5704 25.516 78.8115 24.7134 78.2821 23.6814C77.7526 22.6495 77.4879 21.4588 77.4879 20.105C77.4879 18.7511 77.7526 17.5428 78.2821 16.5108C78.8115 15.4789 79.5704 14.6763 80.5543 14.1074C81.5381 13.5385 82.6897 13.2519 84.0088 13.2519C85.328 13.2519 86.4752 13.5385 87.459 14.1074C88.4385 14.6763 89.1929 15.4789 89.7224 16.5108C90.2474 17.5428 90.5121 18.7423 90.5121 20.105C90.5121 21.4676 90.2474 22.6495 89.7224 23.6814C89.1974 24.7134 88.4429 25.516 87.459 26.0848C86.4796 26.6537 85.328 26.9404 84.0088 26.9404ZM84.0265 24.1357C84.6265 24.1357 85.1339 23.9593 85.5575 23.6153C85.981 23.2669 86.2987 22.7862 86.5149 22.1732C86.731 21.5602 86.8369 20.8635 86.8369 20.0785C86.8369 19.2935 86.731 18.5968 86.5149 17.9882C86.2987 17.3752 85.981 16.8945 85.5575 16.5417C85.1339 16.1889 84.6221 16.0169 84.0265 16.0169C83.4309 16.0169 82.897 16.1933 82.4646 16.5417C82.0323 16.8945 81.7102 17.3752 81.494 17.9882C81.2778 18.6012 81.1719 19.2979 81.1719 20.0785C81.1719 20.8591 81.2778 21.5646 81.494 22.1732C81.7102 22.7818 82.0323 23.2625 82.4646 23.6109C82.897 23.9593 83.4176 24.1312 84.0265 24.1312V24.1357Z" fill="#B53131"/>
<path d="M92.374 26.6802V9.00953H95.983V15.6509H96.0845C96.1022 15.6068 96.1242 15.5627 96.1463 15.5274C96.1683 15.4877 96.1904 15.4525 96.2081 15.4128C96.4287 15.0026 96.689 14.6454 96.9934 14.3367C97.2978 14.028 97.6905 13.7679 98.1714 13.565C98.6523 13.3621 99.217 13.2607 99.8656 13.2607C100.867 13.2607 101.776 13.5165 102.588 14.0325C103.404 14.5484 104.048 15.3202 104.529 16.3433C105.01 17.3708 105.248 18.6144 105.248 20.0741C105.248 21.5338 105.01 22.7377 104.542 23.7652C104.07 24.7927 103.426 25.5733 102.614 26.1025C101.798 26.6317 100.88 26.8963 99.8568 26.8963C99.2126 26.8963 98.6435 26.7949 98.1537 26.5876C97.6596 26.3803 97.2581 26.1201 96.9493 25.8026C96.6404 25.4851 96.3757 25.1191 96.1551 24.7045C96.1419 24.6825 96.133 24.6604 96.1198 24.634C96.1066 24.6119 96.0978 24.5899 96.0845 24.5678H95.9301V26.6802H92.374ZM95.9036 20.0564C95.9036 20.8502 96.0139 21.547 96.2345 22.1379C96.4551 22.7333 96.7816 23.1963 97.2052 23.5227C97.6287 23.849 98.1361 24.0122 98.7229 24.0122C99.3097 24.0122 99.8347 23.849 100.258 23.5183C100.682 23.1875 101.008 22.7245 101.224 22.1291C101.441 21.5338 101.551 20.8414 101.551 20.052C101.551 19.2627 101.445 18.5879 101.229 17.997C101.013 17.4105 100.691 16.9563 100.267 16.6299C99.8435 16.3036 99.3273 16.1404 98.7229 16.1404C98.1184 16.1404 97.6199 16.2992 97.1963 16.6123C96.7684 16.9254 96.4463 17.3752 96.2301 17.9661C96.0139 18.5571 95.9036 19.2494 95.9036 20.0476V20.0564Z" fill="#B53131"/>
<path d="M114.849 20.9693C114.791 20.9693 114.694 20.9737 114.558 20.9825C114.421 20.9914 114.258 21.0002 114.068 21.0046C113.702 21.0266 113.318 21.0531 112.925 21.0751C112.532 21.1016 112.206 21.1237 111.954 21.1501C111.31 21.203 110.807 21.375 110.446 21.6705C110.084 21.966 109.903 22.3673 109.903 22.8656C109.903 23.2007 109.987 23.483 110.154 23.7167C110.322 23.9504 110.556 24.1268 110.851 24.2415C111.151 24.3606 111.496 24.4179 111.879 24.4179C112.422 24.4179 112.903 24.312 113.327 24.096C113.75 23.8799 114.081 23.5844 114.319 23.2007C114.558 22.8215 114.677 22.4025 114.677 21.9395L114.659 17.6618C114.659 17.287 114.575 16.9695 114.408 16.7049C114.24 16.4403 114.002 16.2418 113.688 16.1051C113.375 15.9684 112.996 15.9023 112.554 15.9023C112.144 15.9023 111.787 15.9596 111.478 16.0787C111.169 16.1977 110.918 16.3653 110.723 16.5814C110.529 16.8019 110.397 17.0621 110.335 17.3664H106.907C106.982 16.5858 107.251 15.8802 107.715 15.2628C108.178 14.6454 108.831 14.1515 109.669 13.7899C110.507 13.4327 111.5 13.2519 112.638 13.2519C113.662 13.2519 114.597 13.4062 115.44 13.7194C116.283 14.0325 116.962 14.5308 117.483 15.2099C117.999 15.889 118.259 16.7358 118.259 17.7456V26.6758H114.831V24.8368H114.725C114.5 25.2602 114.213 25.6306 113.856 25.9393C113.503 26.248 113.071 26.4906 112.568 26.6626C112.06 26.8345 111.487 26.9227 110.851 26.9227C109.996 26.9227 109.237 26.7728 108.575 26.4729C107.913 26.173 107.392 25.7276 107.013 25.1323C106.634 24.537 106.444 23.8181 106.444 22.9714C106.444 21.6043 106.898 20.6033 107.812 19.9727C108.725 19.342 109.912 18.9804 111.372 18.879C111.734 18.8569 112.188 18.8305 112.731 18.804C113.274 18.7776 113.768 18.7555 114.209 18.7379C114.363 18.7291 114.496 18.7202 114.597 18.7158C114.699 18.7158 114.778 18.7114 114.822 18.7114L114.849 20.9561V20.9693Z" fill="#B53131"/>
<path d="M126.457 31.928C125.252 31.928 124.207 31.7605 123.311 31.4209C122.415 31.0813 121.714 30.6006 121.206 29.97C120.699 29.3438 120.408 28.6118 120.337 27.7695H123.902C123.964 28.1222 124.114 28.4089 124.343 28.6426C124.573 28.8719 124.873 29.0439 125.243 29.1498C125.614 29.26 126.046 29.3129 126.536 29.3129C127.414 29.3129 128.102 29.1101 128.601 28.7C129.095 28.2898 129.342 27.646 129.342 26.7684V24.3253H129.188C129.188 24.3253 129.174 24.3517 129.17 24.365C129.166 24.3782 129.157 24.3914 129.152 24.4047C128.945 24.8148 128.685 25.1676 128.367 25.4719C128.049 25.7717 127.644 26.0187 127.141 26.2083C126.638 26.398 126.06 26.495 125.398 26.495C124.374 26.495 123.452 26.2524 122.636 25.7717C121.82 25.2866 121.176 24.559 120.708 23.58C120.24 22.601 120.006 21.4015 120.006 19.9815C120.006 18.5615 120.245 17.3135 120.726 16.3036C121.206 15.2937 121.851 14.5352 122.667 14.0281C123.479 13.5209 124.387 13.2651 125.389 13.2651C126.046 13.2651 126.616 13.371 127.096 13.5782C127.582 13.7899 127.974 14.0501 128.279 14.3632C128.583 14.6763 128.848 15.0379 129.073 15.4436C129.095 15.4789 129.117 15.5142 129.13 15.5451C129.144 15.5804 129.161 15.6156 129.179 15.6553H129.324V13.4283H132.898V26.8169C132.898 27.9194 132.629 28.8543 132.091 29.6216C131.553 30.3846 130.798 30.9623 129.823 31.3459C128.852 31.7296 127.727 31.9236 126.457 31.9236V31.928ZM126.527 23.774C127.118 23.774 127.63 23.6285 128.049 23.3286C128.473 23.0332 128.795 22.601 129.016 22.0365C129.236 21.472 129.347 20.7973 129.347 20.0124C129.347 19.2274 129.236 18.5482 129.02 17.9617C128.799 17.3796 128.477 16.9298 128.054 16.6167C127.626 16.3036 127.118 16.1448 126.527 16.1448C125.936 16.1448 125.407 16.3036 124.983 16.6299C124.56 16.9518 124.237 17.4017 124.021 17.9838C123.805 18.5659 123.699 19.2406 123.699 20.0124C123.699 20.7841 123.805 21.45 124.021 22.0101C124.237 22.5701 124.56 23.0067 124.983 23.311C125.411 23.6197 125.923 23.774 126.527 23.774Z" fill="#B53131"/>
<path d="M137.032 11.6952C136.679 11.6952 136.353 11.6114 136.053 11.4482C135.748 11.2851 135.51 11.0602 135.334 10.7779C135.157 10.4957 135.064 10.187 135.064 9.85624C135.064 9.52549 135.153 9.22561 135.334 8.94338C135.514 8.66114 135.753 8.43623 136.053 8.26866C136.353 8.10108 136.679 8.01729 137.032 8.01729C137.385 8.01729 137.716 8.10108 138.016 8.26866C138.316 8.43623 138.554 8.66114 138.731 8.94338C138.907 9.22561 139 9.5299 139 9.85624C139 10.1826 138.912 10.5001 138.731 10.7779C138.55 11.0602 138.312 11.2851 138.016 11.4482C137.716 11.6114 137.39 11.6952 137.032 11.6952ZM135.219 26.6802V13.4283H138.837V26.6802H135.219Z" fill="#B53131"/>
<path d="M73.1377 34.3359V33.2775H79.4116V34.3359H76.8923V41.3697H75.6614V34.3359H73.1333H73.1377Z" fill="#B53131"/>
<path d="M88.2708 37.3258C88.2708 38.1725 88.1164 38.909 87.8031 39.5352C87.4899 40.1614 87.0575 40.6421 86.506 40.9817C85.9545 41.3168 85.328 41.4844 84.6265 41.4844C83.925 41.4844 83.2941 41.3168 82.7426 40.9772C82.1911 40.6377 81.7587 40.157 81.4455 39.5308C81.1322 38.9046 80.9778 38.1681 80.9778 37.3258C80.9778 36.4835 81.1322 35.7426 81.4455 35.1164C81.7587 34.4902 82.1911 34.0095 82.7426 33.67C83.2941 33.3348 83.925 33.1672 84.6265 33.1672C85.328 33.1672 85.9545 33.3348 86.506 33.67C87.0575 34.0051 87.4899 34.4858 87.8031 35.1164C88.1164 35.7426 88.2708 36.4791 88.2708 37.3258ZM87.0487 37.3258C87.0487 36.6864 86.9428 36.1351 86.7354 35.6809C86.5281 35.2267 86.2413 34.8783 85.8751 34.6446C85.5089 34.4108 85.0898 34.2918 84.6221 34.2918C84.1544 34.2918 83.7309 34.4108 83.3647 34.6446C82.9985 34.8827 82.7117 35.2267 82.5043 35.6809C82.297 36.1351 82.1911 36.6864 82.1911 37.3258C82.1911 37.9652 82.297 38.5121 82.5043 38.9707C82.7117 39.4249 82.9985 39.7733 83.3647 40.0071C83.7309 40.2452 84.15 40.3599 84.6221 40.3599C85.0942 40.3599 85.5089 40.2408 85.8751 40.0071C86.2413 39.7733 86.5281 39.4249 86.7354 38.9707C86.9428 38.5165 87.0487 37.9652 87.0487 37.3258Z" fill="#B53131"/>
<path d="M97.6066 37.3258C97.6066 38.1725 97.4522 38.909 97.139 39.5352C96.8257 40.1614 96.3933 40.6421 95.8418 40.9817C95.2903 41.3168 94.6638 41.4844 93.9623 41.4844C93.2608 41.4844 92.6299 41.3168 92.0784 40.9772C91.5269 40.6377 91.0945 40.157 90.7813 39.5308C90.468 38.9046 90.3136 38.1681 90.3136 37.3258C90.3136 36.4835 90.468 35.7426 90.7813 35.1164C91.0945 34.4902 91.5269 34.0095 92.0784 33.67C92.6299 33.3348 93.2608 33.1672 93.9623 33.1672C94.6638 33.1672 95.2903 33.3348 95.8418 33.67C96.3933 34.0051 96.8257 34.4858 97.139 35.1164C97.4522 35.7426 97.6066 36.4791 97.6066 37.3258ZM96.3845 37.3258C96.3845 36.6864 96.2786 36.1351 96.0713 35.6809C95.8639 35.2267 95.5771 34.8783 95.2109 34.6446C94.8447 34.4108 94.4256 34.2918 93.9579 34.2918C93.4902 34.2918 93.0667 34.4108 92.7005 34.6446C92.3343 34.8827 92.0475 35.2267 91.8402 35.6809C91.6328 36.1351 91.5269 36.6864 91.5269 37.3258C91.5269 37.9652 91.6328 38.5121 91.8402 38.9707C92.0475 39.4249 92.3343 39.7733 92.7005 40.0071C93.0667 40.2452 93.4858 40.3599 93.9579 40.3599C94.43 40.3599 94.8447 40.2408 95.2109 40.0071C95.5771 39.7733 95.8639 39.4249 96.0713 38.9707C96.2786 38.5165 96.3845 37.9652 96.3845 37.3258Z" fill="#B53131"/>
<path d="M99.9053 41.3697V33.2775H101.132V40.3113H104.798V41.3697H99.9053Z" fill="#B53131"/>
<path d="M111.385 35.4075C111.359 35.1605 111.275 34.9533 111.129 34.7769C110.984 34.6005 110.79 34.4638 110.547 34.3711C110.304 34.2785 110.031 34.23 109.722 34.23C109.396 34.23 109.113 34.2829 108.866 34.3844C108.619 34.4858 108.429 34.6313 108.297 34.8121C108.165 34.9929 108.098 35.2002 108.098 35.4251C108.098 35.7691 108.235 36.0293 108.513 36.2145C108.791 36.3997 109.144 36.5408 109.568 36.6511L110.353 36.8584C110.768 36.9598 111.147 37.1009 111.487 37.2729C111.827 37.4449 112.109 37.6874 112.338 37.9917C112.568 38.3004 112.682 38.6797 112.682 39.1339C112.682 39.5881 112.563 40.0026 112.325 40.3643C112.087 40.7215 111.743 41.0037 111.293 41.2066C110.843 41.4094 110.304 41.5108 109.678 41.5108C109.051 41.5108 108.553 41.4138 108.107 41.2198C107.662 41.0258 107.313 40.7523 107.062 40.3995C106.81 40.0423 106.673 39.6234 106.647 39.1339H107.878C107.9 39.4161 107.993 39.6543 108.156 39.8527C108.319 40.0512 108.531 40.1967 108.791 40.2893C109.051 40.3819 109.347 40.4304 109.673 40.4304C110.018 40.4304 110.322 40.3775 110.596 40.2672C110.865 40.157 111.081 40.0071 111.231 39.8086C111.385 39.6102 111.46 39.3808 111.46 39.1251C111.46 38.9002 111.399 38.7105 111.271 38.5562C111.143 38.4018 110.971 38.2739 110.75 38.1769C110.529 38.0799 110.256 37.9829 109.929 37.8991L108.976 37.6433C108.297 37.4581 107.772 37.1935 107.41 36.8451C107.048 36.4967 106.863 36.0469 106.863 35.5045C106.863 35.0459 106.987 34.6401 107.238 34.2874C107.49 33.9346 107.834 33.6611 108.27 33.4671C108.707 33.2731 109.197 33.176 109.744 33.176C110.291 33.176 110.768 33.2731 111.191 33.4671C111.615 33.6611 111.95 33.9257 112.193 34.2653C112.435 34.6049 112.563 34.9885 112.572 35.4163H111.381L111.385 35.4075Z" fill="#B53131"/>
<path d="M68.9198 37.3611H50.2615V37.8197H68.9198V37.3611Z" fill="#B53131"/>
<path d="M136.512 37.3611H117.853V37.8197H136.512V37.3611Z" fill="#B53131"/>
<path d="M0 36.0601L4.17816 38.812C4.17816 38.812 4.99438 39.2177 4.99438 38.199V31.54L0 28.797V36.0601Z" fill="#B53131"/>
<path d="M24.5704 41.8681L42.6155 30.658V24.9515C42.6155 24.9515 42.8185 24.0342 41.6978 24.4399L24.469 35.3413C24.469 35.3413 23.9528 35.6677 23.2424 35.6236V42.287C23.6527 42.2914 24.1116 42.19 24.5704 41.8592V41.8681Z" fill="#B53131"/>
<path d="M22.1217 35.2443L8.7666 27.5004V33.8199L21.7158 41.7666C21.7158 41.7666 22.3732 42.2826 23.2424 42.2958V35.6324C22.9026 35.6147 22.5188 35.5089 22.1217 35.2487V35.2443Z" fill="#B53131"/>
<path d="M22.6336 46.5558L8.56372 38.0975V41.2551L22.0203 49.8148C22.0203 49.8148 22.5409 49.9956 23.2424 49.9956V46.6881C23.0483 46.6837 22.8454 46.6484 22.6336 46.5514V46.5558Z" fill="#B53131"/>
<path d="M24.3675 46.353C24.3675 46.353 23.8822 46.7102 23.2424 46.6925V50C23.8248 50 24.5351 49.8721 25.1793 49.4135L42.7126 38.2034V35.1473L24.3631 46.3574L24.3675 46.353Z" fill="#B53131"/>
<path d="M21.7159 24.3429L1.93687 12.2156C1.93687 12.2156 0 12.0127 0 13.9487V28.8014L4.99438 31.5444V20.8811C4.99438 20.8811 5.19733 19.9638 6.7283 20.7797L21.6144 30.0538C21.6144 30.0538 22.3071 30.3978 23.2424 30.4154V24.462C22.7924 24.5766 22.2541 24.5987 21.7159 24.3473V24.3429Z" fill="#B53131"/>
<path d="M24.8749 30.0494L42.5096 18.9407V13.8472C42.5096 13.8472 42.3067 12.93 41.2875 13.3357L24.3631 23.9328C24.3631 23.9328 23.8954 24.29 23.238 24.4532V30.4066C23.7366 30.4154 24.3013 30.3316 24.8705 30.045L24.8749 30.0494Z" fill="#B53131"/>
</g>
<defs>
<clipPath id="clip0_2053_1159">
<rect width="139" height="50" fill="white"/>
</clipPath>
</defs>
</svg>
