<svg width="128" height="128" viewBox="0 0 128 128" fill="none" xmlns="http://www.w3.org/2000/svg">
<path d="M81.148 31.2224C80.6437 30.9278 80.2671 30.5734 80.018 30.1592C79.7729 29.7381 79.6733 29.2583 79.7192 28.7199C79.769 28.1746 79.9836 27.5773 80.363 26.928C80.7423 26.2787 81.1532 25.8053 81.5956 25.5079C82.0421 25.2035 82.5034 25.0561 82.9797 25.0656C83.4668 25.0723 83.9487 25.2148 84.4254 25.4933C84.6948 25.6506 84.9287 25.829 85.1273 26.0284C85.3299 26.2208 85.4881 26.4337 85.6019 26.667C85.7199 26.8934 85.7934 27.1402 85.8226 27.4074L85.8848 27.4437L87.4828 24.7083L88.6329 25.3802L84.2566 32.8716L83.324 32.3268L83.6925 31.4581L83.62 31.4157C83.2162 31.6152 82.8041 31.6942 82.3838 31.6524C81.9675 31.6038 81.5556 31.4604 81.148 31.2224ZM82.0175 30.4239C82.3629 30.6257 82.6933 30.7261 83.0089 30.7251C83.3245 30.7242 83.6211 30.6288 83.8988 30.4389C84.1805 30.2422 84.4364 29.9469 84.6664 29.5532L84.7451 29.4185C84.9267 29.1076 85.046 28.816 85.1032 28.5437C85.1644 28.2644 85.1683 28.0119 85.1149 27.7862C85.0615 27.5604 84.9548 27.3545 84.7949 27.1684C84.6458 26.9794 84.4504 26.8143 84.2087 26.673C83.8702 26.4753 83.5452 26.3735 83.2337 26.3675C82.9262 26.3546 82.6336 26.4431 82.3559 26.633C82.0851 26.8269 81.8287 27.1311 81.5865 27.5455L81.4836 27.7217C81.2456 28.1292 81.112 28.5006 81.083 28.8357C81.054 29.1708 81.1151 29.4706 81.2664 29.735C81.4286 29.9965 81.679 30.2262 82.0175 30.4239ZM89.302 37.023C88.894 36.6052 88.6248 36.1636 88.4945 35.6982C88.3699 35.2272 88.4011 34.7382 88.5881 34.2312C88.7808 33.7187 89.1461 33.1997 89.6841 32.6742C90.2221 32.1488 90.7438 31.8013 91.2493 31.6319C91.7605 31.4569 92.2444 31.4371 92.701 31.5726C93.169 31.7082 93.5958 31.9735 93.9815 32.3683C94.1996 32.5915 94.3778 32.8256 94.5164 33.0705C94.6607 33.3098 94.7568 33.557 94.8047 33.8121C94.8583 34.0617 94.8638 34.3192 94.8211 34.5845L94.8714 34.636L97.1377 32.4224L98.0684 33.3753L91.8618 39.4376L91.1072 38.665L91.6929 37.9251L91.6342 37.8651C91.192 37.9504 90.7737 37.9172 90.3795 37.7654C89.991 37.6081 89.6318 37.3606 89.302 37.023ZM90.3521 36.4838C90.6316 36.7699 90.9236 36.9544 91.2282 37.0371C91.5327 37.1199 91.844 37.1066 92.1621 36.9972C92.4859 36.8822 92.8109 36.6654 93.1371 36.3468L93.2487 36.2378C93.5062 35.9862 93.6987 35.7367 93.8261 35.4893C93.9591 35.2363 94.0299 34.9939 94.0383 34.762C94.0467 34.5302 93.9984 34.3033 93.8935 34.0815C93.8 33.8597 93.6553 33.6487 93.4597 33.4484C93.1858 33.168 92.8994 32.9836 92.6006 32.8952C92.3076 32.8012 92.002 32.809 91.6839 32.9184C91.3714 33.0335 91.0435 33.2588 90.7001 33.5942L90.5541 33.7367C90.2165 34.0665 89.9892 34.3891 89.8724 34.7046C89.7555 35.02 89.735 35.3253 89.8107 35.6203C89.8977 35.9155 90.0782 36.2033 90.3521 36.4838ZM95.8765 45.2528C95.5294 44.6219 95.3396 44.0279 95.307 43.4706C95.2813 42.9095 95.4187 42.3956 95.719 41.9291C96.0194 41.4626 96.492 41.052 97.1368 40.6972C97.7957 40.3348 98.3991 40.1535 98.9469 40.1535C99.5017 40.1496 100.006 40.3106 100.459 40.6365C100.912 40.9625 101.312 41.4408 101.659 42.0717C102.014 42.7166 102.206 43.3141 102.235 43.8644C102.267 44.4217 102.131 44.9301 101.827 45.3896C101.534 45.8522 101.058 46.2648 100.399 46.6272C99.754 46.982 99.1542 47.1613 98.5994 47.1652C98.0484 47.1761 97.5428 47.0205 97.0826 46.6984C96.6332 46.3795 96.2312 45.8976 95.8765 45.2528ZM96.8122 44.738C97.0204 45.1165 97.2625 45.3988 97.5383 45.5849C97.825 45.7742 98.1417 45.8602 98.4883 45.843C98.8388 45.8328 99.2243 45.712 99.6449 45.4807L99.8447 45.3708C100.265 45.1394 100.574 44.8785 100.77 44.5879C100.97 44.3043 101.063 43.9928 101.05 43.6531C101.041 43.3205 100.932 42.965 100.724 42.5864C100.519 42.2149 100.277 41.9326 99.9974 41.7396C99.7216 41.5535 99.4084 41.4655 99.0579 41.4757C98.7113 41.4929 98.3277 41.6172 97.9071 41.8485L97.7073 41.9584C97.2868 42.1898 96.9764 42.4472 96.7763 42.7308C96.5801 43.0213 96.4832 43.3349 96.4857 43.6713C96.499 44.0109 96.6079 44.3665 96.8122 44.738ZM99.8871 54.9807C99.7805 54.5209 99.7657 54.085 99.8426 53.673C99.9292 53.2669 100.128 52.9007 100.438 52.5742L100.419 52.4923L99.4799 52.5868L99.236 51.5347L107.688 49.5753L107.989 50.8729L104.903 51.5884L104.919 51.6585C105.165 51.7656 105.379 51.909 105.561 52.0887C105.751 52.2744 105.909 52.4925 106.033 52.743C106.164 52.9917 106.265 53.2681 106.336 53.572C106.462 54.1175 106.454 54.6161 106.313 55.0678C106.181 55.5254 105.903 55.9224 105.48 56.2586C105.065 56.593 104.491 56.8451 103.759 57.0149C103.026 57.1848 102.392 57.2127 101.856 57.0987C101.329 56.9829 100.9 56.7456 100.57 56.3868C100.249 56.0261 100.021 55.5574 99.8871 54.9807ZM100.91 54.3987C100.999 54.7805 101.144 55.0877 101.345 55.3201C101.555 55.5508 101.823 55.698 102.15 55.7619C102.479 55.8335 102.873 55.816 103.333 55.7094L103.531 55.6633C103.999 55.5549 104.365 55.3962 104.628 55.1873C104.894 54.9862 105.066 54.7369 105.145 54.4394C105.233 54.1478 105.232 53.8073 105.142 53.4176C105.079 53.1448 104.979 52.9093 104.843 52.7109C104.714 52.5108 104.549 52.3479 104.347 52.2221C104.148 52.1042 103.905 52.0331 103.62 52.0088C103.343 51.9827 103.029 52.0103 102.679 52.0916L102.527 52.1268C102.083 52.2298 101.725 52.3867 101.453 52.5974C101.19 52.8064 101.011 53.0614 100.916 53.3625C100.824 53.6714 100.822 54.0168 100.91 54.3987ZM101.077 63.3917C101.088 63.1119 101.128 62.8332 101.195 62.5557C101.261 62.2861 101.363 62.0419 101.5 61.8232C101.645 61.6047 101.835 61.4362 102.072 61.3174C102.309 61.1987 102.603 61.1463 102.955 61.1603C103.435 61.1793 103.81 61.3142 104.08 61.5651C104.358 61.8163 104.561 62.1646 104.687 62.61C104.814 63.0553 104.885 63.5746 104.902 64.1677C104.926 64.7611 104.925 65.4016 104.898 66.089L105.377 66.108C105.641 66.1185 105.859 66.0751 106.031 65.9778C106.203 65.8886 106.333 65.7256 106.423 65.489C106.52 65.2606 106.577 64.9346 106.593 64.5109C106.608 64.1432 106.584 63.8381 106.522 63.5954C106.459 63.3527 106.366 63.1729 106.243 63.0559C106.127 62.9393 105.994 62.8779 105.842 62.8719L105.662 62.8648L105.713 61.5698C105.753 61.5634 105.79 61.5568 105.822 61.5501C105.862 61.5517 105.91 61.5536 105.966 61.5558C106.342 61.5707 106.657 61.7033 106.911 61.9535C107.173 62.2041 107.363 62.5559 107.482 63.0089C107.608 63.4623 107.658 64.0047 107.633 64.6362C107.608 65.2757 107.515 65.8044 107.354 66.2224C107.194 66.6404 106.957 66.9513 106.645 67.1551C106.34 67.3592 105.952 67.4519 105.481 67.4332L102.435 67.3125C102.283 67.3065 102.17 67.334 102.096 67.3951C102.021 67.4642 101.981 67.5667 101.975 67.7026L101.955 68.2182L101.08 68.1835C101.043 68.086 101.009 67.9485 100.976 67.7711C100.943 67.6016 100.93 67.417 100.938 67.2171C100.949 66.9454 101.001 66.7273 101.096 66.5629C101.182 66.4062 101.299 66.2907 101.446 66.2165C101.601 66.1426 101.775 66.0934 101.968 66.069L101.971 65.9851C101.771 65.793 101.6 65.5621 101.458 65.2923C101.317 65.0304 101.216 64.7382 101.157 64.4156C101.09 64.0927 101.063 63.7514 101.077 63.3917ZM102.131 63.7697C102.121 64.0335 102.146 64.2987 102.208 64.5654C102.269 64.832 102.36 65.0718 102.48 65.2847C102.607 65.5059 102.764 65.6842 102.951 65.8197C103.137 65.9553 103.347 66.0276 103.579 66.0368L103.986 66.0529C104.016 65.3095 104.009 64.6727 103.966 64.1426C103.931 63.6208 103.834 63.2207 103.677 62.9423C103.52 62.6638 103.286 62.5184 102.974 62.5061C102.782 62.4985 102.624 62.5482 102.5 62.6554C102.383 62.7709 102.293 62.9274 102.229 63.1251C102.173 63.323 102.14 63.5379 102.131 63.7697ZM98.1608 71.8627C98.2603 71.5501 98.4059 71.2775 98.5976 71.0446C98.7892 70.8118 99.0211 70.6506 99.2931 70.5609C99.5551 70.4764 99.85 70.4863 100.178 70.5907C100.49 70.6902 100.727 70.8704 100.887 71.1314C101.053 71.4024 101.143 71.6997 101.157 72.0233C101.322 71.8491 101.51 71.7327 101.722 71.6742C101.939 71.6257 102.154 71.6354 102.367 71.7034C102.649 71.7932 102.858 71.9687 102.993 72.23C103.126 72.499 103.172 72.8032 103.131 73.1428C103.391 72.9065 103.672 72.7484 103.974 72.6684C104.282 72.5985 104.592 72.6132 104.905 72.7127C105.316 72.8438 105.633 73.0622 105.855 73.3678C106.076 73.6735 106.192 74.0629 106.201 74.5359C106.217 75.0113 106.124 75.5692 105.92 76.2095C105.835 76.4763 105.741 76.7192 105.637 76.9382C105.532 77.1648 105.418 77.3636 105.296 77.5348C105.332 77.8987 105.419 78.191 105.559 78.4117C105.706 78.6349 105.862 78.7897 106.028 78.876L105.638 80.0994C105.389 80.0117 105.18 79.8779 105.011 79.6981C104.846 79.5282 104.727 79.3224 104.653 79.0805C104.587 78.841 104.568 78.5706 104.597 78.2691C104.363 78.4215 104.115 78.5147 103.853 78.5486C103.598 78.585 103.337 78.5606 103.07 78.4757C102.666 78.3471 102.352 78.1337 102.128 77.8357C101.901 77.5453 101.772 77.1725 101.741 76.7176C101.714 76.2726 101.8 75.7414 101.996 75.124L102.393 73.8776C102.458 73.6718 102.469 73.4946 102.424 73.3459C102.386 73.1997 102.288 73.1011 102.128 73.0501C101.983 73.004 101.845 73.0273 101.715 73.1202C101.592 73.2154 101.496 73.3736 101.425 73.5947L100.471 76.5905C100.314 77.086 100.031 77.4326 99.6239 77.6304C99.2167 77.8282 98.7768 77.8519 98.3042 77.7014C97.9535 77.5897 97.6701 77.3988 97.4539 77.1284C97.2378 76.8581 97.1032 76.5424 97.0503 76.1813C96.9873 75.8254 97.0201 75.4455 97.1487 75.0415L98.1608 71.8627ZM98.9887 72.4663L98.0858 75.302C98.0348 75.4621 98.0204 75.6129 98.0426 75.7542C98.0623 75.9033 98.1184 76.0303 98.2109 76.1353C98.301 76.2479 98.4146 76.3261 98.5519 76.3698C98.7805 76.4426 98.9827 76.4272 99.1584 76.3236C99.3341 76.22 99.4548 76.0653 99.5203 75.8595L100.449 72.9437C100.519 72.7227 100.51 72.5141 100.421 72.3179C100.34 72.1242 100.189 71.9921 99.968 71.9218C99.747 71.8514 99.5486 71.868 99.3729 71.9716C99.1871 72.0803 99.0591 72.2452 98.9887 72.4663ZM102.947 75.2629C102.777 75.7965 102.737 76.2247 102.828 76.5473C102.915 76.8775 103.131 77.0973 103.474 77.2065C103.817 77.3157 104.116 77.2598 104.371 77.0388C104.631 76.8278 104.847 76.4555 105.016 75.9219C105.184 75.3959 105.224 74.9678 105.136 74.6375C105.055 74.3097 104.844 74.0912 104.501 73.982C104.272 73.9092 104.058 73.9083 103.859 73.9793C103.668 74.0527 103.497 74.1954 103.345 74.4075C103.194 74.6195 103.061 74.9047 102.947 75.2629ZM103.92 84.5871L105.005 85.2041L104.346 86.3619L103.262 85.7449L103.92 84.5871ZM97.4635 80.9145L102.95 84.0353L102.291 85.1931L96.805 82.0723L97.4635 80.9145ZM89.6121 91.0682C89.8952 90.8086 90.1654 90.6477 90.4229 90.5852C90.6804 90.5228 90.9313 90.5478 91.1756 90.6603C91.414 90.7782 91.6521 90.9669 91.89 91.2263L94.4122 93.977L95.1463 93.3039L95.8681 94.091L95.1163 94.7804L96.1382 96.2855L95.3776 96.983L94.1611 95.6563L93.1174 96.6133L92.3956 95.8261L93.4393 94.8691L91.0144 92.2245C90.8522 92.0477 90.6954 91.9418 90.544 91.9069C90.3981 91.8779 90.2219 91.9581 90.0155 92.1473L89.476 92.642L88.884 91.9963C88.9331 91.9079 88.997 91.8059 89.0756 91.6904C89.1542 91.5749 89.2412 91.4626 89.3365 91.3535C89.4318 91.2444 89.5237 91.1493 89.6121 91.0682ZM83.2828 95.6788C83.9091 95.3236 84.5007 95.1261 85.0575 95.0863C85.6182 95.0534 86.1338 95.1841 86.6041 95.4784C87.0745 95.7727 87.4912 96.2399 87.8543 96.8802C88.2252 97.5343 88.4142 98.1353 88.4213 98.6831C88.4324 99.2378 88.2779 99.7438 87.9579 100.201C87.6378 100.659 87.1647 101.065 86.5383 101.42C85.8981 101.783 85.3031 101.982 84.7532 102.018C84.1964 102.058 83.6863 101.929 83.2229 101.631C82.7565 101.343 82.3378 100.873 81.9669 100.219C81.6039 99.5783 81.4168 98.9809 81.4057 98.4261C81.3877 97.8754 81.5368 97.3678 81.8528 96.9035C82.1659 96.45 82.6426 96.0418 83.2828 95.6788ZM83.8096 96.6078C83.4338 96.8209 83.1547 97.0666 82.9722 97.3448C82.7866 97.6339 82.7047 97.9517 82.7264 98.298C82.7411 98.6484 82.8669 99.0323 83.1036 99.4498L83.2161 99.6482C83.4529 100.066 83.7178 100.371 84.0109 100.563C84.297 100.76 84.6097 100.849 84.9492 100.831C85.2816 100.817 85.6357 100.704 86.0115 100.491C86.3804 100.282 86.6595 100.036 86.849 99.754C87.0315 99.4758 87.1154 99.1615 87.1007 98.8112C87.079 98.4648 86.9498 98.0828 86.713 97.6653L86.6005 97.4669C86.3638 97.0494 86.1023 96.7424 85.8162 96.546C85.5231 96.3535 85.2084 96.2607 84.872 96.2675C84.5326 96.2852 84.1784 96.3987 83.8096 96.6078ZM74.0027 99.7208C74.7018 99.5487 75.3248 99.5189 75.8715 99.6315C76.4202 99.7519 76.881 100.017 77.254 100.428C77.627 100.839 77.9015 101.402 78.0774 102.116C78.2571 102.847 78.2762 103.476 78.1346 104.005C77.9949 104.542 77.709 104.988 77.277 105.341C76.8449 105.695 76.2794 105.957 75.5802 106.129C74.8656 106.305 74.2387 106.336 73.6997 106.222C73.153 106.109 72.697 105.846 72.3318 105.434C71.9607 105.031 71.6853 104.464 71.5055 103.734C71.3296 103.019 71.3115 102.393 71.4512 101.857C71.5832 101.321 71.8642 100.873 72.2943 100.512C72.7186 100.16 73.288 99.8967 74.0027 99.7208ZM74.258 100.758C73.8385 100.861 73.5032 101.022 73.2521 101.24C72.9952 101.468 72.8302 101.752 72.7572 102.091C72.6764 102.432 72.6934 102.836 72.8081 103.302L72.8626 103.524C72.9773 103.99 73.1496 104.355 73.3796 104.62C73.6017 104.886 73.8786 105.057 74.2101 105.132C74.5339 105.209 74.9055 105.196 75.3249 105.092C75.7367 104.991 76.0719 104.83 76.3308 104.61C76.5819 104.392 76.7478 104.112 76.8286 103.771C76.9016 103.431 76.8808 103.029 76.7661 102.563L76.7116 102.341C76.5968 101.875 76.4284 101.509 76.2062 101.242C75.9763 100.977 75.6985 100.803 75.3728 100.718C75.0413 100.643 74.6697 100.656 74.258 100.758ZM67.0631 101.396L67.324 110.068L65.9926 110.108L65.7317 101.436L67.0631 101.396ZM59.0562 100.926C59.5081 100.987 59.9146 101.086 60.2755 101.223C60.6296 101.351 60.9269 101.512 61.1673 101.706C61.4066 101.907 61.5822 102.133 61.6941 102.382C61.8049 102.639 61.8395 102.922 61.7981 103.231C61.7927 103.271 61.788 103.307 61.7837 103.338C61.7715 103.369 61.7633 103.4 61.759 103.432L60.4389 103.255C60.4421 103.231 60.4453 103.207 60.4484 103.183C60.4516 103.16 60.4543 103.14 60.4564 103.124C60.4894 102.878 60.4362 102.673 60.2967 102.509C60.1562 102.353 59.9594 102.226 59.7062 102.127C59.452 102.037 59.1782 101.972 58.8849 101.932C58.5994 101.894 58.3306 101.882 58.0784 101.897C57.8173 101.918 57.6034 101.978 57.4368 102.077C57.2622 102.175 57.1611 102.327 57.1335 102.533C57.1016 102.771 57.1649 102.961 57.3234 103.103C57.4818 103.246 57.7154 103.37 58.0241 103.476C58.3237 103.589 58.6665 103.711 59.0523 103.844C59.3689 103.951 59.668 104.068 59.9497 104.194C60.2234 104.32 60.4667 104.461 60.6797 104.619C60.8836 104.783 61.0346 104.981 61.1328 105.212C61.2309 105.444 61.2593 105.714 61.2178 106.023C61.1774 106.324 61.0749 106.577 60.9103 106.781C60.7447 106.993 60.5288 107.157 60.2628 107.275C59.9968 107.393 59.6801 107.467 59.3127 107.499C58.9452 107.53 58.5395 107.516 58.0955 107.457C57.6673 107.399 57.2926 107.304 56.9713 107.173C56.6409 107.048 56.367 106.894 56.1493 106.711C55.9316 106.529 55.7737 106.322 55.6756 106.091C55.5774 105.86 55.5454 105.617 55.5794 105.363C55.5847 105.324 55.59 105.284 55.5954 105.245C55.6007 105.205 55.6089 105.174 55.62 105.151L56.9283 105.326L56.9171 105.41C56.8927 105.592 56.9354 105.755 57.0452 105.899C57.1471 106.042 57.3009 106.159 57.5064 106.252C57.712 106.344 57.9615 106.409 58.2549 106.449C58.4293 106.472 58.6093 106.484 58.7949 106.485C58.9804 106.486 59.1522 106.468 59.3103 106.433C59.4605 106.397 59.589 106.341 59.6959 106.267C59.7948 106.191 59.8533 106.086 59.8714 105.951C59.8969 105.761 59.8373 105.604 59.6925 105.479C59.5398 105.354 59.3369 105.242 59.0838 105.143C58.8216 105.052 58.5362 104.953 58.2276 104.847C57.9041 104.731 57.5852 104.611 57.2707 104.489C56.9552 104.374 56.6796 104.232 56.444 104.063C56.1993 103.901 56.0171 103.695 55.8973 103.445C55.7685 103.201 55.7291 102.893 55.7791 102.521C55.8269 102.164 55.9398 101.864 56.1176 101.622C56.2864 101.386 56.5163 101.207 56.8071 101.085C57.0901 100.961 57.4226 100.889 57.8049 100.867C58.1792 100.845 58.5963 100.865 59.0562 100.926Z" fill="#B53131"/>
<path d="M63.9673 72.7074C63.9673 73.0526 64.2471 73.3324 64.5923 73.3324C64.9375 73.3324 65.2173 73.0526 65.2173 72.7074L64.5923 72.7074L63.9673 72.7074ZM64.5923 72.7074L65.2173 72.7074L65.2173 55.7188L64.5923 55.7188L63.9673 55.7187L63.9673 72.7074L64.5923 72.7074Z" fill="#B53131"/>
<path d="M57.1045 65.6625C57.2021 65.6746 57.2883 65.6867 57.3744 65.6927C58.2933 65.7683 59.1864 65.9676 60.045 66.3241C61.9172 67.1065 63.2468 68.4598 63.9733 70.4504C64.2001 71.0667 64.3409 71.7071 64.4069 72.3656C64.4213 72.5106 64.4729 72.5589 64.6137 72.5589" stroke="#B53131" stroke-width="1.25" stroke-miterlimit="10"/>
<path d="M72.147 65.6625C72.0493 65.6746 71.9632 65.6867 71.877 65.6927C70.9581 65.7683 70.0651 65.9676 69.2065 66.3241C67.3342 67.1065 66.0047 68.4598 65.2782 70.4504C65.0513 71.0667 64.9106 71.7071 64.8446 72.3656C64.8302 72.5106 64.7785 72.5589 64.6378 72.5589" stroke="#B53131" stroke-width="1.25" stroke-miterlimit="10"/>
</svg>
