<svg width="16" height="16" viewBox="0 0 16 16" fill="none" xmlns="http://www.w3.org/2000/svg">
<path fill-rule="evenodd" clip-rule="evenodd" d="M8.84086 5.14667C8.74711 5.05303 8.62003 5.00044 8.48753 5.00044C8.35503 5.00044 8.22795 5.05303 8.13419 5.14667L3.13419 10.1467C3.04587 10.2415 2.99779 10.3668 3.00008 10.4964C3.00236 10.6259 3.05484 10.7495 3.14645 10.8411C3.23806 10.9327 3.36165 10.9852 3.49118 10.9875C3.62071 10.9897 3.74608 10.9417 3.84086 10.8533L8.48753 6.20667L13.1342 10.8533C13.18 10.9025 13.2352 10.9419 13.2965 10.9692C13.3578 10.9965 13.424 11.0112 13.4912 11.0124C13.5583 11.0136 13.625 11.0012 13.6873 10.9761C13.7495 10.9509 13.8061 10.9135 13.8536 10.866C13.901 10.8185 13.9385 10.762 13.9636 10.6997C13.9888 10.6375 14.0011 10.5708 13.9999 10.5037C13.9987 10.4365 13.984 10.3703 13.9567 10.309C13.9294 10.2476 13.89 10.1924 13.8409 10.1467L8.84086 5.14667Z" fill="#B53131" stroke="#B53131" stroke-width="0.5"/>
</svg>
