<svg width="117" height="42" viewBox="0 0 117 42" fill="none" xmlns="http://www.w3.org/2000/svg">
<g clip-path="url(#clip0_2053_1123)">
<path d="M17.7626 0.0776867L5.57798 7.35304C5.57798 7.35304 4.89094 8.03835 5.83422 8.54955L18.2788 16.0805C18.2788 16.0805 19.1367 16.6806 20.5108 15.9101L32.2683 8.71995C32.2683 8.71995 33.0408 8.11985 32.2683 7.60864L29.3493 5.89723C29.3493 5.89723 28.5769 5.29713 27.2882 6.41214L18.7913 11.6353C18.7913 11.6353 18.1897 12.3206 17.4172 11.9761L14.1566 10.0091C14.1566 10.0091 13.4696 9.06816 14.4983 8.72366L23.0806 3.84502C23.0806 3.84502 23.9385 3.15971 23.3369 2.73371L18.7913 0.0776867C18.7913 0.0776867 18.3605 -0.0927138 17.7626 0.0776867Z" fill="url(#paint0_linear_2053_1123)"/>
<path d="M44.9246 22.5925C44.063 22.5925 43.2869 22.3702 42.6036 21.9257C41.9165 21.4811 41.378 20.8255 40.9807 19.9624C40.5833 19.0955 40.3865 18.062 40.3865 16.8618C40.3865 15.6616 40.587 14.591 40.9918 13.7279C41.3966 12.8648 41.9388 12.2166 42.6258 11.7868C43.3092 11.3534 44.0742 11.1386 44.9172 11.1386C45.4705 11.1386 45.9496 11.2275 46.3581 11.4016C46.7666 11.5794 47.1008 11.8017 47.3571 12.0684C47.6133 12.3351 47.8324 12.6426 48.0107 12.9834C48.0293 13.0093 48.0441 13.0352 48.059 13.0649C48.0701 13.0945 48.085 13.1241 48.0998 13.1501H48.1852V7.57129H51.223V22.4146H48.2298V20.6403H48.0998C48.0887 20.6588 48.0813 20.6773 48.0701 20.6958C48.059 20.7143 48.0515 20.7366 48.0404 20.7551C47.851 21.1033 47.6245 21.4108 47.3645 21.6775C47.1046 21.9442 46.7666 22.1628 46.3581 22.3369C45.9496 22.511 45.4705 22.5962 44.9246 22.5962V22.5925ZM45.879 20.1735C46.373 20.1735 46.8 20.0364 47.1565 19.7623C47.5168 19.4882 47.7879 19.0992 47.9736 18.5992C48.1592 18.0991 48.2521 17.5175 48.2521 16.8507C48.2521 16.1839 48.1592 15.5949 47.9773 15.1022C47.7916 14.6059 47.5205 14.228 47.164 13.965C46.8075 13.702 46.3767 13.5686 45.879 13.5686C45.3814 13.5686 44.9358 13.7057 44.5792 13.9798C44.2227 14.2539 43.9516 14.6355 43.7697 15.1282C43.5877 15.6209 43.4986 16.195 43.4986 16.8544C43.4986 17.5138 43.5914 18.0991 43.7734 18.5992C43.9591 19.0992 44.2301 19.4882 44.5867 19.766C44.9432 20.0439 45.3777 20.1809 45.879 20.1809V20.1735Z" fill="#231815"/>
<path d="M57.3655 22.5925C56.504 22.5925 55.7278 22.3702 55.0445 21.9257C54.3574 21.4811 53.819 20.8255 53.4216 19.9624C53.0242 19.0955 52.8274 18.062 52.8274 16.8618C52.8274 15.6616 53.0279 14.591 53.4327 13.7279C53.8375 12.8648 54.3797 12.2166 55.0668 11.7868C55.7501 11.3534 56.5151 11.1386 57.3581 11.1386C57.9114 11.1386 58.3905 11.2275 58.799 11.4016C59.2075 11.5794 59.5418 11.8017 59.798 12.0684C60.0542 12.3351 60.2734 12.6426 60.4516 12.9834C60.4702 13.0093 60.485 13.0352 60.4999 13.0649C60.511 13.0945 60.5259 13.1241 60.5407 13.1501H60.6262V7.57129H63.664V22.4146H60.6707V20.6403H60.5407C60.5296 20.6588 60.5222 20.6773 60.511 20.6958C60.4999 20.7143 60.4925 20.7366 60.4813 20.7551C60.2919 21.1033 60.0654 21.4108 59.8054 21.6775C59.5455 21.9442 59.2075 22.1628 58.799 22.3369C58.3905 22.511 57.9114 22.5962 57.3655 22.5962V22.5925ZM58.3162 20.1735C58.8102 20.1735 59.2372 20.0364 59.5937 19.7623C59.9503 19.4882 60.2251 19.0992 60.4108 18.5992C60.5964 18.0991 60.6893 17.5175 60.6893 16.8507C60.6893 16.1839 60.5964 15.5949 60.4145 15.1022C60.2288 14.6059 59.9577 14.228 59.6012 13.965C59.2447 13.702 58.8139 13.5686 58.3162 13.5686C57.8186 13.5686 57.373 13.7057 57.0164 13.9798C56.6562 14.2539 56.3888 14.6355 56.2069 15.1282C56.0249 15.6209 55.9358 16.195 55.9358 16.8544C55.9358 17.5138 56.0286 18.0991 56.2106 18.5992C56.3963 19.0992 56.6674 19.4882 57.0239 19.766C57.3804 20.0439 57.8112 20.1809 58.3162 20.1809V20.1735Z" fill="#231815"/>
<path d="M70.7125 22.6302C69.6021 22.6302 68.6328 22.3894 67.8047 21.9115C66.9765 21.4337 66.3377 20.7595 65.8921 19.8926C65.4465 19.0258 65.2236 18.0256 65.2236 16.8884C65.2236 15.7512 65.4465 14.7362 65.8921 13.8694C66.3377 13.0025 66.9765 12.3283 67.8047 11.8505C68.6328 11.3726 69.6021 11.1318 70.7125 11.1318C71.8229 11.1318 72.7884 11.3726 73.6166 11.8505C74.441 12.3283 75.0761 13.0025 75.5217 13.8694C75.9636 14.7362 76.1865 15.7438 76.1865 16.8884C76.1865 18.0331 75.9636 19.0258 75.5217 19.8926C75.0798 20.7595 74.4447 21.4337 73.6166 21.9115C72.7921 22.3894 71.8229 22.6302 70.7125 22.6302ZM70.7273 20.2742C71.2324 20.2742 71.6595 20.126 72.016 19.8371C72.3725 19.5444 72.6399 19.1407 72.8219 18.6258C73.0038 18.1108 73.093 17.5256 73.093 16.8662C73.093 16.2068 73.0038 15.6215 72.8219 15.1103C72.6399 14.5954 72.3725 14.1916 72.016 13.8953C71.6595 13.5989 71.2287 13.4545 70.7273 13.4545C70.226 13.4545 69.7766 13.6026 69.4127 13.8953C69.0487 14.1916 68.7776 14.5954 68.5957 15.1103C68.4137 15.6252 68.3246 16.2105 68.3246 16.8662C68.3246 17.5219 68.4137 18.1145 68.5957 18.6258C68.7776 19.137 69.0487 19.5407 69.4127 19.8334C69.7766 20.126 70.2148 20.2705 70.7273 20.2705V20.2742Z" fill="#231815"/>
<path d="M77.7537 22.4107V7.56738H80.7915V13.1461H80.8769C80.8917 13.1091 80.9103 13.0721 80.9289 13.0424C80.9474 13.0091 80.966 12.9794 80.9809 12.9461C81.1666 12.6016 81.3857 12.3016 81.6419 12.0422C81.8981 11.7829 82.2287 11.5644 82.6335 11.394C83.0383 11.2236 83.5136 11.1384 84.0595 11.1384C84.9025 11.1384 85.6676 11.3532 86.3509 11.7866C87.0379 12.2201 87.5801 12.8683 87.9849 13.7277C88.3897 14.5908 88.5902 15.6355 88.5902 16.8616C88.5902 18.0878 88.3897 19.099 87.996 19.9622C87.5987 20.8253 87.0565 21.4809 86.3732 21.9255C85.6861 22.37 84.9137 22.5923 84.0521 22.5923C83.5099 22.5923 83.0308 22.5071 82.6186 22.333C82.2027 22.1588 81.8647 21.9403 81.6048 21.6736C81.3448 21.4069 81.122 21.0994 80.9363 20.7512C80.9252 20.7327 80.9177 20.7141 80.9066 20.6919C80.8955 20.6734 80.888 20.6549 80.8769 20.6364H80.7469V22.4107H77.7537ZM80.7246 16.8468C80.7246 17.5136 80.8175 18.0989 81.0031 18.5953C81.1888 19.0953 81.4636 19.4843 81.8202 19.7584C82.1767 20.0325 82.6037 20.1696 83.0977 20.1696C83.5916 20.1696 84.0335 20.0325 84.39 19.7547C84.7466 19.4769 85.0214 19.0879 85.2033 18.5878C85.3853 18.0878 85.4782 17.5062 85.4782 16.8431C85.4782 16.18 85.389 15.6132 85.2071 15.1169C85.0251 14.6242 84.754 14.2426 84.3975 13.9685C84.041 13.6944 83.6064 13.5573 83.0977 13.5573C82.5889 13.5573 82.1693 13.6907 81.8127 13.9537C81.4525 14.2167 81.1814 14.5945 80.9994 15.0909C80.8175 15.5873 80.7246 16.1689 80.7246 16.8394V16.8468Z" fill="#231815"/>
<path d="M96.6713 17.6145C96.623 17.6145 96.5413 17.6182 96.4262 17.6256C96.311 17.633 96.1736 17.6404 96.014 17.6441C95.7057 17.6626 95.3826 17.6848 95.0521 17.7034C94.7216 17.7256 94.4468 17.7441 94.2351 17.7663C93.6929 17.8108 93.2695 17.9553 92.965 18.2035C92.6605 18.4516 92.5082 18.7887 92.5082 19.2073C92.5082 19.4889 92.5788 19.7259 92.7199 19.9223C92.861 20.1186 93.0578 20.2668 93.3067 20.3631C93.5592 20.4631 93.8489 20.5113 94.172 20.5113C94.6287 20.5113 95.0335 20.4224 95.39 20.2409C95.7466 20.0593 96.0251 19.8111 96.2256 19.4889C96.4262 19.1703 96.5264 18.8184 96.5264 18.4294L96.5116 14.8362C96.5116 14.5213 96.441 14.2546 96.2999 14.0323C96.1588 13.8101 95.9582 13.6434 95.6946 13.5286C95.4309 13.4137 95.1115 13.3582 94.7402 13.3582C94.3948 13.3582 94.094 13.4063 93.834 13.5063C93.574 13.6063 93.3624 13.7471 93.199 13.9286C93.0356 14.1138 92.9242 14.3324 92.8722 14.588H89.9866C90.0498 13.9323 90.2763 13.3396 90.6662 12.821C91.0562 12.3024 91.6058 11.8875 92.3114 11.5838C93.017 11.2837 93.8526 11.1318 94.8107 11.1318C95.6723 11.1318 96.4596 11.2615 97.1689 11.5245C97.8782 11.7875 98.4501 12.2061 98.8883 12.7766C99.3229 13.347 99.542 14.0583 99.542 14.9066V22.4079H96.6564V20.8632H96.5673C96.3779 21.2188 96.1365 21.53 95.8357 21.7893C95.5386 22.0486 95.1747 22.2523 94.7513 22.3968C94.3242 22.5413 93.8414 22.6153 93.3067 22.6153C92.5862 22.6153 91.9475 22.4894 91.3904 22.2375C90.8333 21.9856 90.3951 21.6115 90.0757 21.1114C89.7564 20.6113 89.5967 20.0075 89.5967 19.2962C89.5967 18.1479 89.9792 17.307 90.7479 16.7773C91.5167 16.2476 92.5156 15.9438 93.7449 15.8586C94.0494 15.8401 94.4319 15.8178 94.8887 15.7956C95.3455 15.7734 95.7614 15.7549 96.1328 15.7401C96.2628 15.7326 96.3742 15.7252 96.4596 15.7215C96.545 15.7215 96.6119 15.7178 96.649 15.7178L96.6713 17.6033V17.6145Z" fill="#231815"/>
<path d="M106.442 26.8194C105.428 26.8194 104.548 26.6787 103.794 26.3934C103.04 26.1082 102.45 25.7044 102.023 25.1747C101.596 24.6487 101.351 24.0337 101.291 23.3262H104.292C104.344 23.6226 104.47 23.8633 104.663 24.0597C104.856 24.2523 105.109 24.3968 105.421 24.4857C105.733 24.5783 106.097 24.6227 106.509 24.6227C107.248 24.6227 107.827 24.4523 108.247 24.1078C108.663 23.7633 108.871 23.2225 108.871 22.4853V20.4331H108.741C108.741 20.4331 108.73 20.4553 108.726 20.4664C108.722 20.4776 108.715 20.4887 108.711 20.4998C108.537 20.8443 108.317 21.1406 108.05 21.3962C107.783 21.6481 107.441 21.8556 107.018 22.0149C106.594 22.1742 106.108 22.2557 105.551 22.2557C104.689 22.2557 103.913 22.0519 103.226 21.6481C102.539 21.2407 101.997 20.6294 101.603 19.8071C101.209 18.9847 101.013 17.9771 101.013 16.7843C101.013 15.5915 101.213 14.5432 101.618 13.6949C102.023 12.8466 102.565 12.2094 103.252 11.7834C103.935 11.3574 104.7 11.1426 105.543 11.1426C106.097 11.1426 106.576 11.2315 106.98 11.4056C107.389 11.5834 107.72 11.802 107.976 12.065C108.232 12.328 108.455 12.6317 108.644 12.9725C108.663 13.0022 108.681 13.0318 108.692 13.0577C108.704 13.0874 108.718 13.117 108.733 13.1503H108.856V11.2796H111.864V22.5261C111.864 23.4522 111.637 24.2375 111.184 24.882C110.731 25.5229 110.096 26.0082 109.276 26.3304C108.459 26.6527 107.512 26.8157 106.442 26.8157V26.8194ZM106.501 19.9701C106.999 19.9701 107.43 19.8478 107.783 19.5959C108.139 19.3477 108.41 18.9847 108.596 18.5105C108.782 18.0364 108.874 17.4696 108.874 16.8102C108.874 16.1509 108.782 15.5804 108.6 15.0877C108.414 14.5987 108.143 14.2209 107.786 13.9579C107.426 13.6949 106.999 13.5615 106.501 13.5615C106.004 13.5615 105.558 13.6949 105.202 13.969C104.845 14.2394 104.574 14.6173 104.392 15.1062C104.21 15.5952 104.121 16.162 104.121 16.8102C104.121 17.4585 104.21 18.0179 104.392 18.4883C104.574 18.9588 104.845 19.3255 105.202 19.5811C105.562 19.8404 105.993 19.9701 106.501 19.9701Z" fill="#231815"/>
<path d="M115.344 9.82381C115.047 9.82381 114.772 9.75343 114.519 9.61636C114.263 9.4793 114.062 9.29038 113.914 9.0533C113.765 8.81622 113.687 8.55692 113.687 8.27909C113.687 8.00127 113.762 7.74937 113.914 7.51229C114.066 7.27521 114.267 7.08629 114.519 6.94552C114.772 6.80476 115.047 6.73438 115.344 6.73438C115.641 6.73438 115.919 6.80476 116.172 6.94552C116.424 7.08629 116.625 7.27521 116.773 7.51229C116.922 7.74937 117 8.00497 117 8.27909C117 8.55321 116.926 8.81993 116.773 9.0533C116.621 9.29038 116.421 9.4793 116.172 9.61636C115.919 9.75343 115.644 9.82381 115.344 9.82381ZM113.817 22.4112V11.2796H116.863V22.4112H113.817Z" fill="#231815"/>
<path d="M61.5619 28.8422V27.9531H66.8428V28.8422H64.7223V34.7506H63.6862V28.8422H61.5582H61.5619Z" fill="url(#paint1_linear_2053_1123)"/>
<path d="M74.2999 31.3536C74.2999 32.0648 74.1699 32.6834 73.9062 33.2094C73.6425 33.7355 73.2786 34.1392 72.8144 34.4245C72.3502 34.706 71.8228 34.8468 71.2324 34.8468C70.6419 34.8468 70.1108 34.706 69.6466 34.4208C69.1824 34.1355 68.8185 33.7318 68.5548 33.2057C68.2911 32.6797 68.1611 32.0611 68.1611 31.3536C68.1611 30.646 68.2911 30.0237 68.5548 29.4977C68.8185 28.9717 69.1824 28.5679 69.6466 28.2826C70.1108 28.0011 70.6419 27.8604 71.2324 27.8604C71.8228 27.8604 72.3502 28.0011 72.8144 28.2826C73.2786 28.5642 73.6425 28.968 73.9062 29.4977C74.1699 30.0237 74.2999 30.6423 74.2999 31.3536ZM73.2712 31.3536C73.2712 30.8164 73.1821 30.3534 73.0075 29.9718C72.833 29.5903 72.5916 29.2976 72.2833 29.1013C71.9751 28.905 71.6223 28.805 71.2286 28.805C70.835 28.805 70.4785 28.905 70.1702 29.1013C69.862 29.3013 69.6206 29.5903 69.4461 29.9718C69.2715 30.3534 69.1824 30.8164 69.1824 31.3536C69.1824 31.8907 69.2715 32.35 69.4461 32.7353C69.6206 33.1168 69.862 33.4095 70.1702 33.6058C70.4785 33.8058 70.8313 33.9022 71.2286 33.9022C71.626 33.9022 71.9751 33.8021 72.2833 33.6058C72.5916 33.4095 72.833 33.1168 73.0075 32.7353C73.1821 32.3537 73.2712 31.8907 73.2712 31.3536Z" fill="url(#paint2_linear_2053_1123)"/>
<path d="M82.1581 31.3536C82.1581 32.0648 82.0282 32.6834 81.7645 33.2094C81.5008 33.7355 81.1369 34.1392 80.6727 34.4245C80.2085 34.706 79.6811 34.8468 79.0906 34.8468C78.5002 34.8468 77.9691 34.706 77.5049 34.4208C77.0407 34.1355 76.6767 33.7318 76.4131 33.2057C76.1494 32.6797 76.0194 32.0611 76.0194 31.3536C76.0194 30.646 76.1494 30.0237 76.4131 29.4977C76.6767 28.9717 77.0407 28.5679 77.5049 28.2826C77.9691 28.0011 78.5002 27.8604 79.0906 27.8604C79.6811 27.8604 80.2085 28.0011 80.6727 28.2826C81.1369 28.5642 81.5008 28.968 81.7645 29.4977C82.0282 30.0237 82.1581 30.6423 82.1581 31.3536ZM81.1295 31.3536C81.1295 30.8164 81.0403 30.3534 80.8658 29.9718C80.6912 29.5903 80.4499 29.2976 80.1416 29.1013C79.8334 28.905 79.4806 28.805 79.0869 28.805C78.6933 28.805 78.3368 28.905 78.0285 29.1013C77.7203 29.3013 77.4789 29.5903 77.3044 29.9718C77.1298 30.3534 77.0407 30.8164 77.0407 31.3536C77.0407 31.8907 77.1298 32.35 77.3044 32.7353C77.4789 33.1168 77.7203 33.4095 78.0285 33.6058C78.3368 33.8058 78.6896 33.9022 79.0869 33.9022C79.4843 33.9022 79.8334 33.8021 80.1416 33.6058C80.4499 33.4095 80.6912 33.1168 80.8658 32.7353C81.0403 32.3537 81.1295 31.8907 81.1295 31.3536Z" fill="url(#paint3_linear_2053_1123)"/>
<path d="M84.0929 34.7506V27.9531H85.1253V33.8616H88.2114V34.7506H84.0929Z" fill="url(#paint4_linear_2053_1123)"/>
<path d="M93.756 29.7426C93.7337 29.5351 93.6631 29.361 93.5406 29.2128C93.418 29.0647 93.2546 28.9498 93.0504 28.872C92.8461 28.7943 92.6159 28.7535 92.3559 28.7535C92.0811 28.7535 91.8434 28.798 91.6354 28.8832C91.4275 28.9684 91.2678 29.0906 91.1564 29.2425C91.045 29.3944 90.9893 29.5685 90.9893 29.7574C90.9893 30.0463 91.1044 30.2649 91.3383 30.4205C91.5723 30.576 91.8694 30.6946 92.2259 30.7872L92.887 30.9613C93.236 31.0465 93.5554 31.165 93.8414 31.3095C94.1273 31.454 94.365 31.6577 94.5581 31.9133C94.7512 32.1726 94.8478 32.4912 94.8478 32.8727C94.8478 33.2543 94.7475 33.6025 94.547 33.9063C94.3464 34.2063 94.0568 34.4434 93.678 34.6138C93.2992 34.7842 92.8461 34.8694 92.3188 34.8694C91.7914 34.8694 91.3718 34.7879 90.9967 34.6249C90.6216 34.4619 90.3282 34.2322 90.1165 33.9359C89.9049 33.6358 89.7897 33.2839 89.7675 32.8727H90.8036C90.8221 33.1098 90.9001 33.3099 91.0375 33.4766C91.1749 33.6433 91.3532 33.7655 91.5723 33.8433C91.7914 33.9211 92.0402 33.9618 92.3151 33.9618C92.6047 33.9618 92.861 33.9174 93.0912 33.8248C93.3177 33.7322 93.4997 33.6062 93.626 33.4395C93.756 33.2728 93.8191 33.0802 93.8191 32.8653C93.8191 32.6764 93.7671 32.5171 93.6594 32.3875C93.5517 32.2578 93.4069 32.1504 93.2212 32.0689C93.0355 31.9874 92.8053 31.9059 92.5304 31.8355L91.7283 31.6207C91.1564 31.4651 90.7144 31.2428 90.4099 30.9502C90.1054 30.6575 89.9494 30.2797 89.9494 29.8241C89.9494 29.4388 90.0534 29.098 90.2651 28.8017C90.4768 28.5053 90.7664 28.2756 91.1341 28.1127C91.5017 27.9497 91.914 27.8682 92.3745 27.8682C92.835 27.8682 93.236 27.9497 93.5926 28.1127C93.9491 28.2756 94.2313 28.4979 94.4356 28.7831C94.6398 29.0684 94.7475 29.3907 94.7549 29.75H93.7523L93.756 29.7426Z" fill="url(#paint5_linear_2053_1123)"/>
<path d="M58.0116 31.3838H42.3064V31.769H58.0116V31.3838Z" fill="url(#paint6_linear_2053_1123)"/>
<path d="M114.905 31.3838H99.2002V31.769H114.905V31.3838Z" fill="url(#paint7_linear_2053_1123)"/>
<path d="M0 30.2905L3.51687 32.602C3.51687 32.602 4.2039 32.9428 4.2039 32.0871V26.4936L0 24.1895V30.2905Z" fill="url(#paint8_linear_2053_1123)"/>
<path d="M20.6815 35.169L35.8706 25.7525V20.9591C35.8706 20.9591 36.0414 20.1886 35.0981 20.5294L20.5961 29.6865C20.5961 29.6865 20.1616 29.9607 19.5637 29.9236V35.5209C19.9091 35.5246 20.2953 35.4394 20.6815 35.1616V35.169Z" fill="url(#paint9_linear_2053_1123)"/>
<path d="M18.6205 29.6054L7.37915 23.1006V28.4089L18.2788 35.0842C18.2788 35.0842 18.8322 35.5176 19.5638 35.5287V29.9314C19.2778 29.9166 18.9547 29.8277 18.6205 29.6091V29.6054Z" fill="url(#paint10_linear_2053_1123)"/>
<path d="M19.0512 39.1069L7.20825 32.002V34.6543L18.535 41.8444C18.535 41.8444 18.9732 41.9963 19.5637 41.9963V39.218C19.4003 39.2143 19.2295 39.1847 19.0512 39.1032V39.1069Z" fill="url(#paint11_linear_2053_1123)"/>
<path d="M20.5107 38.9362C20.5107 38.9362 20.1022 39.2363 19.5637 39.2214V41.9997C20.0539 41.9997 20.6518 41.8923 21.194 41.507L35.9523 32.0906V29.5234L20.507 38.9399L20.5107 38.9362Z" fill="url(#paint12_linear_2053_1123)"/>
<path d="M18.2788 20.448L1.63031 10.261C1.63031 10.261 0 10.0906 0 11.7168V24.1931L4.2039 26.4972V17.54C4.2039 17.54 4.37473 16.7695 5.66339 17.4548L18.1934 25.2451C18.1934 25.2451 18.7765 25.534 19.5638 25.5489V20.548C19.185 20.6443 18.7319 20.6628 18.2788 20.4517V20.448Z" fill="url(#paint13_linear_2053_1123)"/>
<path d="M20.9378 25.2417L35.7815 15.9105V11.6319C35.7815 11.6319 35.6107 10.8614 34.7528 11.2022L20.5071 20.1038C20.5071 20.1038 20.1134 20.4038 19.5601 20.5409V25.5418C19.9797 25.5492 20.4551 25.4788 20.9341 25.238L20.9378 25.2417Z" fill="url(#paint14_linear_2053_1123)"/>
</g>
<defs>
<linearGradient id="paint0_linear_2053_1123" x1="18.4385" y1="-3.34514" x2="19.2071" y2="13.0913" gradientUnits="userSpaceOnUse">
<stop offset="0.36" stop-color="#EF9239"/>
<stop offset="0.87" stop-color="#E16033"/>
</linearGradient>
<linearGradient id="paint1_linear_2053_1123" x1="64.2024" y1="27.0085" x2="64.2024" y2="36.7695" gradientUnits="userSpaceOnUse">
<stop offset="0.25" stop-color="#598FCC"/>
<stop offset="0.73" stop-color="#6A66A6"/>
</linearGradient>
<linearGradient id="paint2_linear_2053_1123" x1="71.2286" y1="27.0083" x2="71.2286" y2="36.7693" gradientUnits="userSpaceOnUse">
<stop offset="0.25" stop-color="#598FCC"/>
<stop offset="0.73" stop-color="#6A66A6"/>
</linearGradient>
<linearGradient id="paint3_linear_2053_1123" x1="79.0869" y1="27.0083" x2="79.0869" y2="36.7693" gradientUnits="userSpaceOnUse">
<stop offset="0.25" stop-color="#598FCC"/>
<stop offset="0.73" stop-color="#6A66A6"/>
</linearGradient>
<linearGradient id="paint4_linear_2053_1123" x1="86.154" y1="4.46635e-05" x2="86.154" y2="4.46635e-05" gradientUnits="userSpaceOnUse">
<stop offset="0.25" stop-color="#598FCC"/>
<stop offset="0.73" stop-color="#6A66A6"/>
</linearGradient>
<linearGradient id="paint5_linear_2053_1123" x1="92.3113" y1="27.0088" x2="92.3113" y2="36.7697" gradientUnits="userSpaceOnUse">
<stop offset="0.25" stop-color="#598FCC"/>
<stop offset="0.73" stop-color="#6A66A6"/>
</linearGradient>
<linearGradient id="paint6_linear_2053_1123" x1="58.3978" y1="31.5764" x2="38.8229" y2="31.5764" gradientUnits="userSpaceOnUse">
<stop offset="0.29" stop-color="#5399D3"/>
<stop offset="0.82" stop-color="#676BB0"/>
</linearGradient>
<linearGradient id="paint7_linear_2053_1123" x1="98.7248" y1="31.5764" x2="117.007" y2="31.5764" gradientUnits="userSpaceOnUse">
<stop offset="0.29" stop-color="#5399D3"/>
<stop offset="0.82" stop-color="#676BB0"/>
</linearGradient>
<linearGradient id="paint8_linear_2053_1123" x1="1.17353" y1="33.8245" x2="3.0139" y2="22.6136" gradientUnits="userSpaceOnUse">
<stop offset="0.22" stop-color="#5B72AF"/>
<stop offset="0.76" stop-color="#43A2D4"/>
</linearGradient>
<linearGradient id="paint9_linear_2053_1123" x1="27.7227" y1="22.589" x2="27.7227" y2="33.8206" gradientUnits="userSpaceOnUse">
<stop offset="0.34" stop-color="#5772AF"/>
<stop offset="0.56" stop-color="#5D6DAB"/>
<stop offset="0.8" stop-color="#6C64A4"/>
</linearGradient>
<linearGradient id="paint10_linear_2053_1123" x1="13.4733" y1="22.5894" x2="13.4733" y2="33.821" gradientUnits="userSpaceOnUse">
<stop offset="0.34" stop-color="#5772AF"/>
<stop offset="0.56" stop-color="#5D6DAB"/>
<stop offset="0.8" stop-color="#6C64A4"/>
</linearGradient>
<linearGradient id="paint11_linear_2053_1123" x1="6.88145" y1="33.1021" x2="26.6149" y2="45.2152" gradientUnits="userSpaceOnUse">
<stop offset="0.33" stop-color="#6D69A8"/>
<stop offset="0.55" stop-color="#826DA8"/>
<stop offset="0.72" stop-color="#8E70A9"/>
</linearGradient>
<linearGradient id="paint12_linear_2053_1123" x1="33.6163" y1="29.8161" x2="16.0911" y2="47.3818" gradientUnits="userSpaceOnUse">
<stop offset="0.33" stop-color="#6D69A8"/>
<stop offset="0.55" stop-color="#826DA8"/>
<stop offset="0.72" stop-color="#8E70A9"/>
</linearGradient>
<linearGradient id="paint13_linear_2053_1123" x1="17.1833" y1="29.7533" x2="7.55939" y2="20.1014" gradientUnits="userSpaceOnUse">
<stop offset="0.23" stop-color="#5377B3"/>
<stop offset="0.25" stop-color="#5278B4"/>
<stop offset="0.61" stop-color="#4796CB"/>
<stop offset="0.82" stop-color="#43A2D4"/>
</linearGradient>
<linearGradient id="paint14_linear_2053_1123" x1="17.005" y1="24.5453" x2="25.0237" y2="19.8454" gradientUnits="userSpaceOnUse">
<stop offset="0.28" stop-color="#5377B3"/>
<stop offset="0.84" stop-color="#4E87BF"/>
</linearGradient>
<clipPath id="clip0_2053_1123">
<rect width="117" height="42" fill="white"/>
</clipPath>
</defs>
</svg>
