<svg width="31" height="50" viewBox="0 0 31 50" fill="none" xmlns="http://www.w3.org/2000/svg">
<path d="M14.5693 42.2184C14.5693 42.9056 15.1264 43.4626 15.8135 43.4626C16.5007 43.4626 17.0578 42.9056 17.0578 42.2184L15.8135 42.2184L14.5693 42.2184ZM15.8135 42.2184L17.0578 42.2184L17.0578 8.39844L15.8136 8.39844L14.5693 8.39844L14.5693 42.2184L15.8135 42.2184Z" fill="#B53131"/>
<path d="M0.907542 28.1939C1.1019 28.218 1.2734 28.242 1.4449 28.254C3.2742 28.4044 5.05204 28.8013 6.76129 29.5109C10.4885 31.0684 13.1353 33.7625 14.5815 37.7254C15.0331 38.9521 15.3133 40.227 15.4447 41.538C15.4733 41.8266 15.5762 41.9228 15.8563 41.9228" stroke="#B53131" stroke-width="2.48843" stroke-miterlimit="10"/>
<path d="M30.8536 28.1939C30.6592 28.218 30.4877 28.242 30.3162 28.254C28.4869 28.4044 26.7091 28.8013 24.9998 29.5109C21.2726 31.0684 18.6259 33.7625 17.1796 37.7254C16.728 38.9521 16.4479 40.227 16.3164 41.538C16.2878 41.8266 16.1849 41.9228 15.9048 41.9228" stroke="#B53131" stroke-width="2.48843" stroke-miterlimit="10"/>
</svg>
