<svg width="430" height="430" viewBox="0 0 430 430" fill="none" xmlns="http://www.w3.org/2000/svg">
<path d="M249.143 149.74C248.138 149.155 247.387 148.451 246.89 147.627C246.401 146.789 246.201 145.834 246.291 144.762C246.389 143.677 246.814 142.487 247.568 141.193C248.321 139.9 249.138 138.956 250.018 138.363C250.905 137.756 251.823 137.461 252.772 137.478C253.741 137.49 254.701 137.773 255.651 138.326C256.188 138.638 256.654 138.992 257.05 139.389C257.453 139.771 257.769 140.195 257.996 140.659C258.232 141.109 258.379 141.6 258.438 142.132L258.562 142.204L261.735 136.754L264.027 138.088L255.336 153.014L253.478 151.932L254.209 150.202L254.064 150.118C253.261 150.516 252.441 150.675 251.604 150.593C250.775 150.497 249.955 150.213 249.143 149.74ZM250.871 148.148C251.56 148.549 252.218 148.748 252.846 148.745C253.474 148.742 254.064 148.551 254.617 148.173C255.177 147.78 255.685 147.192 256.142 146.407L256.298 146.139C256.659 145.519 256.896 144.939 257.009 144.396C257.13 143.84 257.137 143.337 257.03 142.888C256.923 142.439 256.71 142.029 256.391 141.659C256.094 141.283 255.704 140.955 255.223 140.675C254.548 140.282 253.901 140.08 253.281 140.069C252.669 140.045 252.086 140.222 251.534 140.6C250.996 140.987 250.486 141.593 250.005 142.419L249.801 142.77C249.328 143.582 249.063 144.322 249.007 144.989C248.95 145.656 249.072 146.253 249.374 146.779C249.698 147.299 250.197 147.755 250.871 148.148ZM265.389 161.267C264.576 160.436 264.039 159.558 263.779 158.631C263.53 157.694 263.592 156.72 263.963 155.711C264.346 154.69 265.072 153.656 266.142 152.609C267.213 151.563 268.251 150.87 269.257 150.532C270.274 150.183 271.237 150.143 272.147 150.412C273.078 150.681 273.929 151.208 274.697 151.994C275.131 152.438 275.487 152.903 275.763 153.391C276.05 153.867 276.242 154.359 276.338 154.867C276.445 155.363 276.456 155.876 276.372 156.404L276.472 156.507L280.98 152.096L282.834 153.992L270.488 166.07L268.985 164.533L270.15 163.059L270.033 162.94C269.152 163.11 268.32 163.045 267.535 162.744C266.761 162.431 266.046 161.939 265.389 161.267ZM267.478 160.192C268.035 160.761 268.617 161.128 269.223 161.292C269.829 161.457 270.449 161.43 271.082 161.211C271.727 160.982 272.373 160.55 273.022 159.915L273.244 159.698C273.756 159.197 274.139 158.7 274.392 158.207C274.657 157.703 274.797 157.22 274.814 156.759C274.83 156.297 274.734 155.846 274.525 155.404C274.338 154.963 274.05 154.543 273.66 154.145C273.114 153.587 272.544 153.22 271.949 153.045C271.365 152.858 270.757 152.874 270.124 153.092C269.502 153.322 268.849 153.771 268.166 154.439L267.876 154.723C267.204 155.38 266.753 156.023 266.52 156.651C266.288 157.279 266.248 157.887 266.399 158.474C266.573 159.062 266.933 159.634 267.478 160.192ZM278.482 177.652C277.792 176.395 277.415 175.212 277.352 174.103C277.302 172.986 277.576 171.963 278.175 171.035C278.774 170.107 279.716 169.29 281 168.585C282.313 167.865 283.514 167.506 284.605 167.507C285.709 167.5 286.712 167.822 287.614 168.472C288.515 169.121 289.311 170.074 290 171.331C290.705 172.616 291.086 173.806 291.142 174.901C291.206 176.01 290.934 177.022 290.328 177.936C289.743 178.857 288.794 179.677 287.482 180.397C286.197 181.102 285.003 181.458 283.898 181.465C282.801 181.485 281.795 181.174 280.88 180.532C279.986 179.896 279.186 178.936 278.482 177.652ZM280.346 176.629C280.759 177.383 281.24 177.945 281.789 178.316C282.36 178.694 282.99 178.866 283.68 178.832C284.378 178.813 285.145 178.573 285.983 178.113L286.381 177.895C287.219 177.435 287.833 176.916 288.225 176.338C288.624 175.774 288.81 175.154 288.784 174.478C288.766 173.816 288.55 173.108 288.136 172.354C287.73 171.614 287.249 171.051 286.693 170.666C286.144 170.295 285.521 170.12 284.823 170.139C284.133 170.173 283.369 170.419 282.531 170.879L282.133 171.097C281.296 171.557 280.677 172.069 280.278 172.633C279.887 173.211 279.693 173.835 279.698 174.505C279.724 175.181 279.939 175.889 280.346 176.629ZM286.46 197.028C286.247 196.113 286.217 195.245 286.37 194.425C286.542 193.617 286.937 192.887 287.555 192.237L287.517 192.074L285.648 192.263L285.161 190.169L301.986 186.263L302.585 188.846L296.442 190.272L296.474 190.412C296.965 190.625 297.391 190.91 297.752 191.268C298.132 191.637 298.446 192.072 298.692 192.57C298.954 193.065 299.155 193.615 299.296 194.22C299.548 195.306 299.533 196.299 299.251 197.198C298.989 198.109 298.437 198.9 297.595 199.569C296.768 200.235 295.626 200.737 294.168 201.076C292.709 201.414 291.447 201.47 290.381 201.244C289.33 201.013 288.477 200.541 287.82 199.827C287.18 199.109 286.726 198.176 286.46 197.028ZM288.496 195.869C288.672 196.629 288.961 197.241 289.363 197.703C289.78 198.162 290.314 198.455 290.965 198.582C291.619 198.725 292.404 198.69 293.319 198.477L293.715 198.385C294.646 198.169 295.373 197.853 295.898 197.437C296.426 197.036 296.769 196.54 296.926 195.948C297.102 195.367 297.1 194.689 296.919 193.914C296.793 193.371 296.595 192.902 296.323 192.507C296.067 192.109 295.739 191.784 295.337 191.534C294.939 191.3 294.457 191.158 293.89 191.11C293.338 191.058 292.713 191.113 292.015 191.275L291.713 191.346C290.829 191.551 290.116 191.863 289.576 192.283C289.051 192.699 288.695 193.207 288.507 193.806C288.323 194.421 288.319 195.109 288.496 195.869ZM288.827 213.772C288.85 213.215 288.928 212.661 289.062 212.108C289.196 211.572 289.399 211.086 289.671 210.651C289.96 210.216 290.34 209.881 290.812 209.645C291.284 209.409 291.87 209.305 292.57 209.334C293.525 209.372 294.271 209.642 294.808 210.142C295.362 210.642 295.764 211.336 296.015 212.223C296.266 213.11 296.407 214.143 296.439 215.324C296.487 216.506 296.483 217.78 296.428 219.149L297.382 219.188C297.907 219.209 298.341 219.123 298.684 218.93C299.026 218.752 299.286 218.428 299.464 217.957C299.658 217.503 299.772 216.854 299.806 216.01C299.836 215.278 299.789 214.671 299.665 214.188C299.541 213.705 299.356 213.346 299.111 213.113C298.881 212.881 298.615 212.758 298.313 212.746L297.955 212.732L298.059 210.154C298.14 210.141 298.212 210.128 298.276 210.115C298.356 210.118 298.451 210.122 298.563 210.126C299.31 210.157 299.937 210.421 300.443 210.92C300.965 211.419 301.343 212.12 301.577 213.022C301.828 213.925 301.927 215.005 301.876 216.262C301.825 217.535 301.639 218.587 301.318 219.419C300.997 220.251 300.526 220.869 299.904 221.274C299.298 221.68 298.525 221.864 297.586 221.826L291.523 221.58C291.221 221.568 290.996 221.623 290.847 221.744C290.698 221.881 290.618 222.085 290.607 222.356L290.566 223.382L288.823 223.312C288.751 223.117 288.683 222.844 288.618 222.49C288.552 222.153 288.527 221.785 288.543 221.388C288.565 220.847 288.67 220.412 288.858 220.085C289.03 219.774 289.263 219.544 289.556 219.396C289.865 219.25 290.211 219.152 290.596 219.104L290.603 218.937C290.204 218.554 289.864 218.094 289.583 217.557C289.301 217.035 289.101 216.453 288.984 215.811C288.851 215.168 288.798 214.488 288.827 213.772ZM290.925 214.527C290.903 215.052 290.954 215.58 291.076 216.111C291.198 216.642 291.378 217.119 291.615 217.543C291.868 217.984 292.181 218.339 292.552 218.609C292.924 218.879 293.34 219.024 293.802 219.043L294.614 219.075C294.674 217.596 294.661 216.328 294.576 215.272C294.507 214.234 294.316 213.437 294.004 212.882C293.692 212.328 293.225 212.038 292.605 212.013C292.223 211.997 291.908 212.096 291.66 212.309C291.428 212.539 291.248 212.85 291.12 213.244C291.009 213.638 290.943 214.065 290.925 214.527ZM283.009 230.639C283.207 230.017 283.496 229.474 283.878 229.01C284.259 228.547 284.721 228.225 285.262 228.047C285.784 227.879 286.371 227.898 287.023 228.106C287.646 228.304 288.117 228.662 288.436 229.182C288.766 229.721 288.945 230.313 288.974 230.958C289.302 230.611 289.676 230.379 290.098 230.262C290.53 230.166 290.958 230.185 291.383 230.32C291.944 230.499 292.36 230.848 292.629 231.368C292.893 231.904 292.984 232.509 292.903 233.185C293.42 232.715 293.98 232.4 294.582 232.241C295.195 232.101 295.812 232.131 296.434 232.329C297.254 232.589 297.884 233.024 298.326 233.632C298.767 234.241 298.997 235.016 299.015 235.957C299.048 236.904 298.862 238.015 298.456 239.289C298.287 239.82 298.1 240.304 297.894 240.74C297.684 241.191 297.458 241.587 297.216 241.928C297.286 242.652 297.46 243.234 297.738 243.674C298.031 244.118 298.343 244.426 298.673 244.598L297.898 247.033C297.402 246.859 296.985 246.593 296.648 246.235C296.321 245.897 296.083 245.487 295.936 245.005C295.803 244.529 295.766 243.99 295.823 243.39C295.359 243.694 294.865 243.879 294.342 243.947C293.834 244.019 293.315 243.971 292.784 243.802C291.98 243.546 291.354 243.121 290.908 242.528C290.457 241.95 290.2 241.208 290.137 240.302C290.085 239.417 290.254 238.359 290.645 237.13L291.435 234.648C291.565 234.239 291.585 233.886 291.496 233.59C291.421 233.299 291.225 233.103 290.906 233.001C290.617 232.909 290.344 232.956 290.084 233.141C289.84 233.331 289.648 233.645 289.508 234.086L287.61 240.05C287.296 241.036 286.734 241.726 285.924 242.12C285.113 242.514 284.237 242.561 283.296 242.262C282.598 242.04 282.034 241.66 281.603 241.122C281.173 240.584 280.905 239.955 280.799 239.237C280.674 238.528 280.739 237.772 280.995 236.967L283.009 230.639ZM284.657 231.84L282.861 237.486C282.759 237.804 282.731 238.105 282.775 238.386C282.814 238.683 282.926 238.935 283.11 239.144C283.289 239.369 283.516 239.524 283.789 239.611C284.244 239.756 284.647 239.725 284.996 239.519C285.346 239.313 285.586 239.005 285.717 238.595L287.564 232.79C287.704 232.35 287.685 231.935 287.509 231.544C287.347 231.159 287.047 230.896 286.606 230.756C286.166 230.616 285.771 230.649 285.422 230.855C285.052 231.072 284.797 231.4 284.657 231.84ZM292.538 237.406C292.2 238.468 292.121 239.321 292.301 239.963C292.476 240.62 292.905 241.058 293.588 241.275C294.271 241.492 294.866 241.381 295.374 240.941C295.892 240.521 296.32 239.779 296.658 238.717C296.991 237.67 297.07 236.818 296.895 236.16C296.735 235.508 296.313 235.073 295.63 234.855C295.175 234.711 294.75 234.709 294.354 234.85C293.973 234.997 293.632 235.281 293.33 235.703C293.029 236.125 292.765 236.693 292.538 237.406ZM294.479 255.968L296.639 257.195L295.328 259.501L293.168 258.273L294.479 255.968ZM281.624 248.659L292.547 254.869L291.237 257.175L280.313 250.964L281.624 248.659ZM265.998 268.875C266.561 268.359 267.099 268.038 267.612 267.913C268.124 267.789 268.624 267.839 269.11 268.063C269.585 268.297 270.059 268.673 270.533 269.189L275.555 274.664L277.016 273.324L278.453 274.89L276.957 276.263L278.992 279.259L277.478 280.648L275.056 278.007L272.978 279.913L271.541 278.346L273.618 276.44L268.79 271.177C268.467 270.825 268.155 270.614 267.853 270.545C267.563 270.487 267.212 270.647 266.801 271.023L265.728 272.008L264.549 270.723C264.647 270.547 264.774 270.344 264.93 270.114C265.087 269.884 265.26 269.661 265.449 269.443C265.639 269.226 265.822 269.037 265.998 268.875ZM253.4 278.056C254.647 277.349 255.824 276.956 256.933 276.876C258.049 276.811 259.075 277.071 260.012 277.656C260.948 278.242 261.778 279.172 262.501 280.446C263.24 281.748 263.616 282.945 263.631 284.035C263.653 285.139 263.346 286.147 262.709 287.057C262.072 287.968 261.13 288.777 259.883 289.484C258.609 290.207 257.424 290.605 256.33 290.676C255.221 290.756 254.206 290.499 253.283 289.905C252.355 289.334 251.521 288.397 250.782 287.095C250.059 285.82 249.687 284.631 249.664 283.527C249.628 282.43 249.925 281.42 250.554 280.495C251.177 279.592 252.126 278.779 253.4 278.056ZM254.449 279.906C253.701 280.33 253.145 280.819 252.782 281.373C252.413 281.949 252.25 282.581 252.293 283.271C252.323 283.968 252.573 284.733 253.045 285.564L253.269 285.959C253.74 286.79 254.268 287.397 254.851 287.78C255.421 288.171 256.044 288.348 256.719 288.313C257.381 288.285 258.086 288.059 258.834 287.635C259.568 287.219 260.124 286.729 260.501 286.168C260.864 285.614 261.031 284.988 261.002 284.291C260.958 283.601 260.701 282.841 260.229 282.01L260.005 281.615C259.534 280.784 259.013 280.173 258.444 279.782C257.86 279.399 257.233 279.214 256.564 279.228C255.888 279.263 255.183 279.489 254.449 279.906ZM234.927 286.107C236.319 285.764 237.559 285.704 238.648 285.928C239.74 286.168 240.657 286.696 241.4 287.514C242.143 288.331 242.689 289.451 243.04 290.874C243.398 292.328 243.436 293.581 243.154 294.635C242.876 295.704 242.307 296.59 241.447 297.294C240.588 297.998 239.462 298.521 238.07 298.864C236.647 299.215 235.4 299.276 234.326 299.048C233.238 298.824 232.33 298.302 231.603 297.48C230.864 296.678 230.316 295.55 229.958 294.097C229.607 292.674 229.571 291.428 229.849 290.359C230.111 289.294 230.67 288.402 231.527 287.683C232.371 286.982 233.505 286.457 234.927 286.107ZM235.436 288.171C234.601 288.377 233.933 288.697 233.434 289.132C232.922 289.586 232.594 290.151 232.449 290.826C232.288 291.505 232.322 292.309 232.55 293.237L232.659 293.677C232.888 294.605 233.231 295.333 233.689 295.859C234.131 296.39 234.682 296.73 235.342 296.879C235.987 297.032 236.726 297.006 237.561 296.8C238.381 296.598 239.048 296.278 239.564 295.839C240.063 295.404 240.394 294.847 240.554 294.168C240.7 293.493 240.658 292.691 240.429 291.763L240.321 291.322C240.092 290.395 239.757 289.665 239.314 289.135C238.857 288.608 238.304 288.26 237.655 288.092C236.995 287.943 236.255 287.969 235.436 288.171ZM221.113 289.444L221.636 306.708L218.986 306.788L218.462 289.524L221.113 289.444ZM205.173 288.513C206.073 288.633 206.882 288.83 207.601 289.103C208.306 289.358 208.898 289.678 209.376 290.064C209.853 290.465 210.202 290.913 210.425 291.409C210.646 291.921 210.715 292.484 210.633 293.1C210.622 293.179 210.613 293.25 210.604 293.313C210.58 293.374 210.564 293.436 210.555 293.499L207.927 293.147C207.933 293.1 207.94 293.053 207.946 293.005C207.952 292.958 207.958 292.918 207.962 292.887C208.027 292.398 207.921 291.99 207.644 291.663C207.364 291.353 206.972 291.099 206.468 290.903C205.962 290.723 205.417 290.594 204.833 290.516C204.264 290.44 203.729 290.416 203.227 290.445C202.707 290.488 202.282 290.608 201.95 290.804C201.603 290.999 201.401 291.301 201.346 291.712C201.283 292.185 201.409 292.564 201.725 292.847C202.04 293.13 202.505 293.377 203.12 293.588C203.716 293.813 204.399 294.057 205.167 294.32C205.797 294.533 206.393 294.766 206.953 295.017C207.498 295.267 207.983 295.549 208.407 295.863C208.813 296.19 209.114 296.584 209.309 297.044C209.505 297.504 209.561 298.042 209.479 298.658C209.398 299.257 209.194 299.76 208.867 300.166C208.537 300.588 208.108 300.916 207.578 301.151C207.049 301.385 206.418 301.534 205.687 301.596C204.955 301.659 204.148 301.631 203.264 301.513C202.411 301.399 201.665 301.211 201.025 300.948C200.368 300.699 199.822 300.393 199.389 300.03C198.956 299.667 198.641 299.255 198.446 298.795C198.25 298.335 198.186 297.852 198.254 297.347C198.264 297.268 198.275 297.189 198.286 297.111C198.296 297.032 198.313 296.97 198.335 296.924L200.939 297.273L200.917 297.439C200.868 297.802 200.953 298.127 201.172 298.413C201.375 298.697 201.681 298.931 202.091 299.114C202.5 299.298 202.996 299.429 203.581 299.507C203.928 299.553 204.286 299.577 204.656 299.578C205.025 299.58 205.367 299.545 205.682 299.475C205.981 299.402 206.236 299.292 206.449 299.144C206.646 298.993 206.762 298.784 206.798 298.516C206.849 298.137 206.73 297.824 206.442 297.576C206.138 297.327 205.734 297.104 205.23 296.908C204.708 296.725 204.14 296.529 203.525 296.318C202.882 296.087 202.247 295.849 201.62 295.605C200.992 295.376 200.444 295.094 199.974 294.758C199.487 294.435 199.125 294.025 198.886 293.527C198.629 293.043 198.551 292.43 198.65 291.688C198.745 290.978 198.97 290.381 199.324 289.898C199.66 289.429 200.117 289.073 200.696 288.829C201.259 288.583 201.921 288.439 202.682 288.396C203.427 288.351 204.258 288.39 205.173 288.513Z" fill="#B53131"/>
<path d="M214.934 232.334C214.934 233.021 215.492 233.578 216.179 233.578C216.866 233.578 217.423 233.021 217.423 232.334L216.179 232.334L214.934 232.334ZM216.179 232.334L217.423 232.334L217.423 198.514L216.179 198.514L214.935 198.514L214.934 232.334L216.179 232.334Z" fill="#B53131"/>
<path d="M201.273 218.31C201.467 218.334 201.639 218.358 201.81 218.37C203.639 218.52 205.417 218.917 207.126 219.627C210.854 221.184 213.5 223.878 214.947 227.841C215.398 229.068 215.678 230.343 215.81 231.654C215.838 231.942 215.941 232.039 216.221 232.039" stroke="#B53131" stroke-width="2.48843" stroke-miterlimit="10"/>
<path d="M231.219 218.31C231.024 218.334 230.853 218.358 230.681 218.37C228.852 218.52 227.074 218.917 225.365 219.627C221.638 221.184 218.991 223.878 217.545 227.841C217.093 229.068 216.813 230.343 216.682 231.654C216.653 231.942 216.55 232.039 216.27 232.039" stroke="#B53131" stroke-width="2.48843" stroke-miterlimit="10"/>
</svg>
